<svg width="59" height="57" viewBox="0 0 59 57" fill="none" xmlns="http://www.w3.org/2000/svg">
<g id="social icons" clip-path="url(#clip0_380_2378)" filter="url(#filter0_d_380_2378)">
<path id="Vector" d="M55 24.5C55 10.969 43.5833 0 29.5 0C15.4167 0 4 10.969 4 24.5C4 36.7285 13.3249 46.8644 25.5156 48.7024V31.582H19.041V24.5H25.5156V19.1023C25.5156 12.962 29.3227 9.57031 35.1474 9.57031C37.9364 9.57031 40.8555 10.0488 40.8555 10.0488V16.0781H37.6401C34.4725 16.0781 33.4844 17.9668 33.4844 19.9062V24.5H40.5566L39.4261 31.582H33.4844V48.7024C45.6751 46.8644 55 36.7285 55 24.5Z" fill="#1877F2"/>
<path id="Vector_2" d="M39.4261 31.582L40.5566 24.5H33.4844V19.9062C33.4844 17.9687 34.4725 16.0781 37.6401 16.0781H40.8555V10.0488C40.8555 10.0488 37.9374 9.57031 35.1474 9.57031C29.3227 9.57031 25.5156 12.962 25.5156 19.1023V24.5H19.041V31.582H25.5156V48.7024C28.1558 49.0992 30.8442 49.0992 33.4844 48.7024V31.582H39.4261Z" fill="white"/>
</g>
<defs>
<filter id="filter0_d_380_2378" x="0" y="0" width="59" height="57" filterUnits="userSpaceOnUse" color-interpolation-filters="sRGB">
<feFlood flood-opacity="0" result="BackgroundImageFix"/>
<feColorMatrix in="SourceAlpha" type="matrix" values="0 0 0 0 0 0 0 0 0 0 0 0 0 0 0 0 0 0 127 0" result="hardAlpha"/>
<feOffset dy="4"/>
<feGaussianBlur stdDeviation="2"/>
<feComposite in2="hardAlpha" operator="out"/>
<feColorMatrix type="matrix" values="0 0 0 0 0 0 0 0 0 0 0 0 0 0 0 0 0 0 0.25 0"/>
<feBlend mode="normal" in2="BackgroundImageFix" result="effect1_dropShadow_380_2378"/>
<feBlend mode="normal" in="SourceGraphic" in2="effect1_dropShadow_380_2378" result="shape"/>
</filter>
<clipPath id="clip0_380_2378">
<rect width="51" height="49" fill="white" transform="translate(4)"/>
</clipPath>
</defs>
</svg>
